PathFileType	4	(X/Y/Z)	Kaydara	
DataRate	CameraRate	NumFrames	NumMarkers	Units	OrigDataRate	OrigDataStartFrame	OrigNumFrames	
120.00	120.00	4	72	mm	120.00	131	261	
Frame#	Time	Hips			RightUpLeg			RightLeg			RightFoot			RightFoot_End			LeftUpLeg			LeftLeg			LeftFoot			LeftFoot_End			Spine			Spine1			Spine2			Spine3			Neck			Head			Head_End			RightShoulder			RightArm			RightForeArm			RightHand			RightHandThumb1			RightHandThumb2			RightHandThumb3			RightHandThumb3_End			RightInHandIndex			RightHandIndex1			RightHandIndex2			RightHandIndex3			RightHandIndex3_End			RightInHandMiddle			RightHandMiddle1			RightHandMiddle2			RightHandMiddle3			RightHandMiddle3_End			RightInHandRing			RightHandRing1			RightHandRing2			RightHandRing3			RightHandRing3_End			RightInHandPinky			RightHandPinky1			RightHandPinky2			RightHandPinky3			RightHandPinky3_End			LeftShoulder			LeftArm			LeftForeArm			LeftHand			LeftHandThumb1			LeftHandThumb2			LeftHandThumb3			LeftHandThumb3_End			LeftInHandIndex			LeftHandIndex1			LeftHandIndex2			LeftHandIndex3			LeftHandIndex3_End			LeftInHandMiddle			LeftHandMiddle1			LeftHandMiddle2			LeftHandMiddle3			LeftHandMiddle3_End			LeftInHandRing			LeftHandRing1			LeftHandRing2			LeftHandRing3			LeftHandRing3_End			LeftInHandPinky			LeftHandPinky1			LeftHandPinky2			LeftHandPinky3			LeftHandPinky3_End			
		X1	Y1	Z1	X2	Y2	Z2	X3	Y3	Z3	X4	Y4	Z4	X5	Y5	Z5	X6	Y6	Z6	X7	Y7	Z7	X8	Y8	Z8	X9	Y9	Z9	X10	Y10	Z10	X11	Y11	Z11	X12	Y12	Z12	X13	Y13	Z13	X14	Y14	Z14	X15	Y15	Z15	X16	Y16	Z16	X17	Y17	Z17	X18	Y18	Z18	X19	Y19	Z19	X20	Y20	Z20	X21	Y21	Z21	X22	Y22	Z22	X23	Y23	Z23	X24	Y24	Z24	X25	Y25	Z25	X26	Y26	Z26	X27	Y27	Z27	X28	Y28	Z28	X29	Y29	Z29	X30	Y30	Z30	X31	Y31	Z31	X32	Y32	Z32	X33	Y33	Z33	X34	Y34	Z34	X35	Y35	Z35	X36	Y36	Z36	X37	Y37	Z37	X38	Y38	Z38	X39	Y39	Z39	X40	Y40	Z40	X41	Y41	Z41	X42	Y42	Z42	X43	Y43	Z43	X44	Y44	Z44	X45	Y45	Z45	X46	Y46	Z46	X47	Y47	Z47	X48	Y48	Z48	X49	Y49	Z49	X50	Y50	Z50	X51	Y51	Z51	X52	Y52	Z52	X53	Y53	Z53	X54	Y54	Z54	X55	Y55	Z55	X56	Y56	Z56	X57	Y57	Z57	X58	Y58	Z58	X59	Y59	Z59	X60	Y60	Z60	X61	Y61	Z61	X62	Y62	Z62	X63	Y63	Z63	X64	Y64	Z64	X65	Y65	Z65	X66	Y66	Z66	X67	Y67	Z67	X68	Y68	Z68	X69	Y69	Z69	X70	Y70	Z70	X71	Y71	Z71	X72	Y72	Z72	

131	1.083	2081.203	893.81699	129.612	2159.525222560176	894.8494598299017	92.77656657898693	2047.9954533771752	493.959070339004	47.05700401312258	2055.8373613890653	113.47628689613587	17.289398764794154	1949.168207919808	39.67452429787133	157.18416272905026	2014.4500583809347	866.5819491990138	180.65157600631196	1907.5235582470007	478.97650642432177	296.99426735147955	1788.7593523655692	86.0230976057527	457.3180381677747	1644.235746734173	39.30816599976917	342.2508670415641	2027.1966679892785	1014.5342362052858	75.7453336577992	1972.467326082276	1077.431715843403	26.1216694498776	1911.6871488357556	1137.2073756217094	-28.220473205512565	1848.878421625397	1185.2787482158037	-84.61889062650211	1779.99804781059	1237.7445549897516	-141.89272503082714	1707.5194105726282	1278.6662236694601	-185.5531267329145	1568.3478486994013	1355.5944446101385	-197.63293417891697	1823.5269949134859	1233.257360565791	-136.04750959517006	1901.7561862513428	1280.5053699716939	-192.83392858467045	2021.116714884774	1096.7092374370534	-275.7104610162303	2193.2306205247287	1032.438558536842	-379.1927388576596	2205.3551010114843	1054.4893898510647	-396.79149564779374	2208.020703563513	1060.3699801318678	-425.16252045424085	2211.133857247041	1060.6764555838233	-444.7726493694744	2214.8043309622544	1057.690764934802	-460.99462083048337	2212.6154969768513	1043.630477324793	-397.0418618889264	2239.788329306188	1043.6516687942094	-427.39356994800073	2249.923756950971	1039.929106472942	-452.9793693468686	2248.276464813247	1038.64802001366	-469.1012814028068	2241.5515095214596	1038.2846100702939	-482.5905594648227	2214.671027982655	1033.1472639623228	-395.79657467100446	2242.2889317155045	1027.498627780972	-424.7258681496488	2253.520818792183	1022.0485997928614	-452.38787942882163	2251.6159993046595	1019.8369709750096	-471.71495509321136	2244.297813028227	1019.1155440953994	-486.4146683818913	2215.532565073443	1025.753522665086	-394.10200214094937	2241.332119832321	1014.3114879398381	-418.43964561753387	2251.253144303011	1008.1513290555206	-442.24193978215766	2249.4854865290363	1005.2693045518381	-460.7208609440694	2242.637565237562	1004.2361752213642	-474.46478241452303	2214.929152665414	1017.1273483393882	-391.58668075940517	2238.573784205225	1001.3590235481894	-412.233073644615	2246.6096984732135	994.2764050563476	-430.70668564233443	2245.3646280230237	991.134317701365	-443.9016369377907	2239.323964063179	989.6206425788755	-455.9132731287948	1782.1723570872532	1205.9717247251979	-110.20907503493385	1721.3239097814758	1120.7249544210877	-75.4808269921841	1916.8212121634508	1055.9761153511129	-179.40814522724017	2114.2808349072375	1027.5725075273435	-278.24507404816603	2129.0311970879184	1052.4164986246433	-286.9728631241881	2156.156779114384	1061.7410200501715	-278.35423432828225	2176.8620095264023	1064.546631903313	-272.17759054213855	2195.6757268489587	1063.7305708780807	-266.8790042357022	2136.543526708137	1042.1956488260828	-289.0226163496427	2178.8034038054284	1047.7457020003112	-296.72504715203365	2210.0666649028726	1047.7610675047072	-292.0698699291766	2225.7633064948263	1048.2325654379656	-283.22288931576594	2236.232858537346	1048.9344194925945	-271.8848634351939	2140.097228123923	1031.7888985595398	-287.8035307738695	2183.237908767685	1031.5743319698377	-294.6597039871878	2217.686487995624	1030.1951435989904	-289.38162676404954	2236.784242337592	1030.0941130197768	-278.612877030367	2248.317767909739	1030.5364154613808	-266.16073529240754	2141.5309545066193	1024.3109577167181	-286.847779280722	2181.442420120614	1017.6742494130049	-292.46129681767616	2211.7414490324704	1015.0454984919365	-287.64624157062747	2230.307993429411	1014.1904111940173	-277.14490715576784	2241.221247397867	1014.2472658526298	-265.3827219547512	2141.947718843665	1015.4049359623737	-284.71887893177194	2178.8297058527414	1003.8829336842157	-288.9001416904507	2203.344710988375	999.5810173051958	-284.68428048230027	2217.009448973304	997.8945942719432	-276.8503510211351	2226.747153555161	997.3333471656395	-266.3307072330901
132	1.092	2081.203	893.81699	129.612	2158.976392712965	894.5114206590313	92.67717449727299	2047.5998675127144	493.56940434058487	47.29075875209453	2056.4170760472225	113.53491847040125	16.646297086088623	1950.086237473888	39.49758473998566	156.5372734244852	2014.9726377211052	866.9112842011546	180.7587316332882	1907.9899273899139	479.31122115162384	297.04310410041495	1789.3064825707659	86.17814364574643	456.73881378622775	1644.831608184116	39.31856696314482	341.69964490973865	2027.3768598919212	1014.5754484639303	75.6634334430158	1972.7217727713305	1077.5391327779423	26.039313437425815	1912.0091402607545	1137.3963716597946	-28.289995457378826	1849.2451284052725	1185.564596665069	-84.654398021084	1780.416453609891	1238.126967854271	-141.90109368020225	1708.00926807978	1279.1606515805838	-185.54964343429836	1568.8439244056444	1356.103362909405	-197.55040250152788	1823.7757351699447	1233.432890294415	-136.0368314099165	1901.434810673123	1280.103794185944	-192.4931580126363	2020.5887989449625	1097.0520145312569	-274.1594958484305	2191.3736732939437	1033.0268236758097	-376.791664838771	2203.467986084143	1055.1381875425147	-394.23145444716187	2206.1705912436546	1061.0899932220564	-422.4363050825326	2209.2987733897976	1061.445778944614	-441.9312369210062	2212.9725920037467	1058.500958616261	-458.0576304988763	2210.6758240228423	1044.2837225327767	-394.4671550982036	2237.7313195308693	1044.4035697734091	-424.56401951532644	2247.8454206617835	1040.7501467110535	-449.9830282321847	2246.235837014518	1039.5048867716168	-466.02638313185525	2239.576468884058	1039.1663011219266	-479.46759536953505	2212.709100531524	1033.7963329539941	-393.2326782333427	2240.2005012984678	1028.2416602110902	-421.91925125984443	2251.406635760879	1022.8662064543942	-449.40152499965336	2249.5461209414143	1020.6973843969795	-468.63491261519385	2242.299121672571	1020.0029145619558	-483.2825630060735	2213.5572022544293	1026.3971352079348	-391.552092591516	2239.229656579282	1015.0346085721661	-415.68389730627257	2249.125904346377	1008.9384121741209	-439.33223612791454	2247.399745355003	1006.0971227705769	-457.7222184494285	2240.618172621579	1005.0890808344136	-471.41786989390073	2212.9472667792484	1017.7617077770071	-389.0614914230635	2236.468893178342	1002.0606852619683	-409.53373037991867	2244.481893664598	995.027316096596	-427.88916988613676	2243.2656065704005	991.913992305541	-441.0217235780137	2237.282859955799	990.4219929121157	-452.9920209870587	1782.7241123617703	1206.5043993060624	-110.24556422096938	1722.303917080948	1122.0571504197756	-75.61267210832146	1916.7382731372356	1056.9721228149047	-178.37358090356994	2112.8973302290924	1028.433539951629	-276.15528967188664	2127.612441645977	1053.2369143437363	-284.84754957335537	2154.5919005576675	1062.481925346749	-276.25308998620056	2175.1790417693146	1065.2281812632089	-270.0863247298913	2193.8803434310016	1064.3592274712105	-264.7900234831731	2135.0678466972827	1042.999858957242	-286.85983960215356	2177.1052473708114	1048.4404359110717	-294.4650603026684	2208.1877531588425	1048.3699303305743	-289.79173965035443	2223.788348036186	1048.7944719362297	-280.97386082571404	2234.189421364097	1049.4617920268106	-269.6871611705215	2138.5836404819133	1032.5856181766885	-285.627573642926	2181.4868282048315	1032.2602206735833	-292.3817860708499	2215.7338521063803	1030.786687135573	-287.08254982162595	2234.7136625639323	1030.628692672919	-276.348255267757	2246.1712539123732	1031.0330604916214	-263.9519561580229	2139.996373476002	1025.1052269443273	-284.6644218669513	2179.677102224757	1018.3672164195551	-290.17847971428296	2209.796422942864	1015.6557461326497	-285.34375395334786	2228.2470589639856	1014.7454568427877	-274.87500714241224	2239.0878972096907	1014.7665215169012	-263.16501718312134	2140.394504912797	1016.1991595864009	-282.5342790568593	2177.0536792103258	1004.5843451049036	-286.6216153273141	2201.4194899012214	1000.2158744103108	-282.3885295042904	2214.9971239504202	998.4890369411144	-274.57765707025146	2224.6692092306894	997.8959959757689	-264.10384047553225
133	1.1	2081.203	893.81699	129.612	2158.4128877386984	894.170483887084	92.56055165524138	2047.1936111239986	493.1775977375532	47.50337259554651	2057.0148608301174	113.59904855700577	15.958437595184726	1951.0265583204236	39.31960028602051	155.8427107416181	2015.512763258842	867.2429904842298	180.87991560865936	1908.4956990521237	479.67820402786765	297.22324809825705	1789.9062443492728	86.3667996000223	456.2919026792443	1645.4817685498797	39.365403479458664	341.27955386840114	2027.5470694253343	1014.6185059323471	75.59589738349322	1972.962918029036	1077.6491555807163	25.97596405454487	1912.3157489917585	1137.5888167606265	-28.337076360216997	1849.596675940748	1185.8548725183032	-84.66626462654365	1780.8202406316195	1238.5153974035816	-141.8844631527029	1708.4848859632298	1279.6626852342233	-185.51980902990138	1569.3222574953545	1356.6165490740148	-197.42448184767866	1824.0064124420699	1233.6069587352235	-136.0033993694409	1901.0790362547611	1279.684847148654	-192.11965370369666	2019.9590663328297	1097.324138623215	-272.5409287666952	2189.345423630244	1033.4435300174575	-374.3122071816281	2201.39614623771	1055.611207930498	-391.5968277165325	2204.1171144019586	1061.6328606687184	-419.63128473377213	2207.247229048936	1062.0375912654329	-439.0084059723617	2210.9133801796047	1059.1338292826115	-455.03731532960654	2208.550043179906	1044.7627391646265	-391.8203728684028	2235.4640719442664	1044.980013872062	-421.668864364319	2245.5387217960006	1041.3957281472092	-446.9202098143676	2243.9568137107094	1040.1863811972821	-462.88074708824615	2237.355559790483	1039.8727490528474	-476.26785930122804	2210.5615343451573	1034.2728442880855	-390.59710113998113	2237.9031506278147	1028.8118399806926	-419.04748101338225	2249.0638978791576	1023.5111838444	-446.3490863041502	2247.235645815496	1021.3853792844002	-465.4836568343552	2240.051689625563	1020.7180623732089	-480.07264929615224	2211.3971573669096	1026.8693937875478	-388.9306734962268	2236.9225014696904	1015.5871452924313	-412.86280798442	2246.777036153861	1009.5553359749207	-436.3563914608973	2245.0808556418388	1006.7551101520348	-454.65249842855417	2238.358017188013	1005.7723978976632	-468.2936796501353	2210.7824370094913	1018.226179821326	-386.4643440304471	2234.1637982251864	1002.5940532444117	-406.7680073720426	2242.140685999578	995.6106308513176	-425.0046324271557	2240.9449595787514	992.5264813632689	-438.07118472275374	2235.013485496615	991.056469862208	-449.9946485909316	1783.2641684971838	1207.0496366527927	-110.25536189209478	1723.2806158713424	1123.4225560129216	-75.75698537102852	1916.6325233936898	1058.0109924681608	-177.30111760718367	2111.4549717313407	1029.3573684578419	-274.00714411305444	2126.118215412584	1054.1219437874165	-282.66201671264986	2152.941788825981	1063.292481634309	-274.0944126401902	2173.405293871487	1065.983904375161	-267.9393999223225	2191.9906244743356	1065.0667000350659	-262.64694683637526	2133.5191032319326	1043.8725643005987	-284.63618667903916	2175.3193636697392	1049.2158481714525	-292.1425210791817	2206.213878590492	1049.067585577002	-287.45255314535297	2221.715680946372	1049.4482366191025	-278.666297737722	2232.047183147293	1050.082232604345	-267.4340817791826	2137.0010436442262	1033.453155944767	-283.39093210007786	2179.6546279782806	1033.030070159202	-290.0416510326019	2213.692790387827	1031.4713087392124	-284.72292543069506	2232.5516232924915	1031.260180624894	-274.0261412734774	2243.9322219900955	1031.6279975438158	-261.68914847637996	2138.395997728278	1025.9716578297061	-282.42053144531235	2177.8378531202598	1019.1453257176981	-287.8338064607889	2207.771717759135	1016.3593339097104	-282.9809013939952	2226.1038501314943	1015.3976722564381	-272.5477118939191	2236.8714278947327	1015.3843092394119	-260.8931855105641	2138.7798244971286	1017.0666395432787	-280.2895836012332	2175.2112986474217	1005.3716414178226	-284.2819577350367	2199.4243141907255	1000.9435166056438	-280.032908927056	2212.913434910708	999.1792195649654	-272.2472907284612	2222.519435197564	998.5556882972442	-261.82221230241566
134	1.108	2081.203	893.81699	129.612	2157.8364956484506	893.8279831514227	92.43373110381906	2046.7923058778742	492.78396401646853	47.67755836460793	2057.645018167354	113.66817713506407	15.212197433104949	1952.020017426876	39.135392319669116	155.09753535714262	2016.0679733859138	867.5761554362924	181.00937136693352	1909.031581189114	480.06298356194577	297.4782376178132	1790.535507638412	86.56589792358393	455.89473113765484	1646.1572784307032	39.413799766603226	340.9190450655042	2027.7094302471262	1014.6615893834005	75.53661310028879	1973.1921277760664	1077.7581551513254	25.924041857902136	1912.606842737534	1137.7789341368034	-28.37005581451127	1849.9306442445127	1186.1414252566863	-84.662484034752	1781.2049194060598	1238.8989107037287	-141.85101734433718	1708.9491414420688	1280.16412412095	-185.48159929303011	1569.7828475267181	1357.1093201004946	-197.33673799020545	1824.2147155491261	1233.7705584609396	-135.9555816530396	1900.6847246113905	1279.2404066155182	-191.7198711443499	2019.213226008982	1097.5042353744834	-270.8575700744205	2187.122596103364	1033.6670003672207	-371.77743731881696	2199.1600902926934	1055.8534054742795	-388.93735355108134	2201.8906917683985	1061.9080701441121	-416.8088784445524	2205.010481312394	1062.3339715834227	-436.07145142036313	2208.653455625001	1059.4462957890696	-452.00393600177614	2206.2430202020614	1044.9983559059233	-389.1468195395794	2233.0028916749297	1045.2351288183424	-418.77376638131847	2243.0167478094	1041.673900164847	-443.86425958163886	2241.448398199429	1040.4840631154152	-459.73920221542215	2234.893005101212	1040.1900710653863	-473.06518555922815	2208.215762920059	1034.5032813001237	-387.9279916764089	2235.3860463276587	1029.058490969743	-416.1646888645742	2246.4759047429893	1023.7822579990076	-443.29206795867873	2244.661821924872	1021.6796390255931	-462.3239928996943	2237.5269835301383	1021.0336425895654	-476.8464027886204	2209.0273323585816	1027.0955671173965	-386.27037320985534	2234.3764499447425	1015.8238470471738	-410.01870112513825	2244.16481900822	1009.8125483781046	-433.36208755076996	2242.4799803035544	1007.0342771676853	-451.56007105028965	2235.802222236504	1006.071415829129	-465.1390630473162	2208.3941896274796	1018.4476995066951	-383.8204825240509	2231.600453071167	1002.8220164439915	-403.9656788523714	2239.5182972183165	995.853763774505	-422.0854294926154	2238.327917377688	992.7850185569905	-435.08205032364475	2232.4346893832335	991.3322414566195	-446.95137058515087	1783.7892838850967	1207.5964142604323	-110.2463508598648	1724.260870114781	1124.81156440598	-75.81682703958707	1916.474357901179	1058.9231187842079	-176.1534360077329	2109.906342604563	1029.9259131822641	-271.9213947641767	2124.472082687917	1054.6694564398335	-280.50908193288234	2151.105620168043	1063.785263478802	-271.94661514015087	2171.4265300636316	1066.438632196005	-265.78892868626536	2189.8842096004914	1065.4897589294392	-260.48889526190925	2131.831286607856	1044.4214643792143	-282.4437908811499	2173.363374689701	1049.7215580779314	-289.81109997137673	2204.04978421815	1049.5267214837206	-285.08253756151373	2219.4395838061237	1049.8726464096135	-276.3200912197341	2229.6901003080716	1050.474013266246	-265.1398229775639	2135.293646706509	1034.0029419319794	-281.1891326838563	2177.675078619716	1033.538217144103	-287.6991485148266	2211.484419671118	1031.928866295909	-282.3375939294653	2230.20728778881	1031.6759590830566	-271.66918802566613	2241.4988676321254	1032.0081273210171	-259.38886984387966	2136.6817102059354	1026.5233320084446	-280.214979163471	2175.8739652965724	1019.661786872659	-285.49696789467856	2205.6070380237234	1016.8320071748404	-280.60622719173455	2223.8073074381746	1015.8302098356467	-270.20014500636734	2234.4908388515482	1015.783402455427	-258.59878259774075	2137.0645955422215	1017.6204833704843	-278.08892344524946	2173.2667941536624	1005.8950492040674	-281.9616425592376	2197.3180053903347	1001.4324894619057	-277.6820906726241	2210.7104494452237	999.6392208438915	-269.9161430694988	2220.241718915558	998.9862415966968	-259.53809918423684
